<?xml version="1.0" encoding="UTF-8"?>
<svg id="Layer_2" data-name="Layer 2" xmlns="http://www.w3.org/2000/svg" xmlns:xlink="http://www.w3.org/1999/xlink" viewBox="0 0 36.25 16.39">
  <defs>
    <style>
      .cls-1 {
        fill: url(#linear-gradient);
      }
    </style>
    <linearGradient id="linear-gradient" x1="0" y1="8.2" x2="36.25" y2="8.2" gradientUnits="userSpaceOnUse">
      <stop offset="0" stop-color="#b483b9"/>
      <stop offset="1" stop-color="#ffcf48"/>
    </linearGradient>
  </defs>
  <g id="Layer_1-2" data-name="Layer 1">
    <path class="cls-1" d="M18.28,12.48c0,.08.03.16.03.25,0,1.24-1.01,2.25-2.25,2.25-1.08,0-1.98-.76-2.2-1.77l-5.13-3.5c-.16.04-.33.07-.51.07l-3.71,4.25s.01.07.01.11c0,1.24-1.01,2.25-2.25,2.25s-2.25-1.01-2.25-2.25,1.01-2.25,2.25-2.25c.04,0,.08.01.12.01l3.58-4.1c-.01-.09-.03-.18-.03-.27,0-1.24,1.01-2.25,2.25-2.25,1.14,0,2.08.85,2.22,1.96l4.93,3.37c.22-.07.45-.12.7-.12l6.15-7.3c-.01-.1-.03-.2-.03-.31,0-1.24,1.01-2.25,2.25-2.25s2.25,1.01,2.25,2.25-.97,2.21-2.19,2.25l-6.21,7.37ZM35.72.36c-.63-.54-1.58-.46-2.11.17l-11.08,13.03c-.54.63-.46,1.58.17,2.11.28.24.63.36.97.36.42,0,.85-.18,1.14-.53l11.08-13.03c.54-.63.46-1.58-.17-2.11Z"/>
  </g>
</svg>