<?xml version="1.0" encoding="UTF-8"?>
<svg id="Layer_2" data-name="Layer 2" xmlns="http://www.w3.org/2000/svg" xmlns:xlink="http://www.w3.org/1999/xlink" viewBox="0 0 126.97 24.78">
  <defs>
    <style>
      .cls-1 {
        letter-spacing: -.01em;
      }

      .cls-2, .cls-3 {
        fill: #fff;
      }

      .cls-4 {
        letter-spacing: 0em;
      }

      .cls-3 {
        font-family: Roboto-Medium, Roboto;
        font-size: 22px;
        font-weight: 500;
      }

      .cls-5 {
        fill: url(#linear-gradient);
      }
    </style>
    <linearGradient id="linear-gradient" x1="0" y1="10.62" x2="36.25" y2="10.62" gradientUnits="userSpaceOnUse">
      <stop offset="0" stop-color="#b483b9"/>
      <stop offset="1" stop-color="#ffcf48"/>
    </linearGradient>
  </defs>
  <g id="Layer_1-2" data-name="Layer 1">
    <g>
      <path class="cls-5" d="M18.28,14.91c0,.08.03.16.03.25,0,1.24-1.01,2.25-2.25,2.25-1.08,0-1.98-.76-2.2-1.77l-5.13-3.5c-.16.04-.33.07-.51.07l-3.71,4.25s.01.07.01.11c0,1.69-1.86,2.95-3.65,1.83-.17-.11-.32-.26-.43-.43-1.12-1.79.14-3.65,1.83-3.65.04,0,.08.01.12.01l3.58-4.1c-.01-.09-.03-.18-.03-.27,0-1.24,1.01-2.25,2.25-2.25,1.14,0,2.08.85,2.22,1.96l4.93,3.37c.22-.07.45-.12.7-.12l6.15-7.3c-.01-.1-.03-.2-.03-.31,0-1.69,1.87-2.95,3.66-1.82.17.11.32.26.43.43,1.1,1.77-.11,3.59-1.76,3.64l-6.21,7.37ZM35.72,2.78c-.63-.54-1.58-.46-2.11.17l-11.08,13.03c-.54.63-.46,1.58.17,2.11.28.24.63.36.97.36.42,0,.85-.18,1.14-.53l11.08-13.03c.54-.63.46-1.58-.17-2.11Z"/>
      <text class="cls-3" transform="translate(47.01 18.82)"><tspan x="0" y="0">ds</tspan><tspan class="cls-1" x="23.77" y="0">F</tspan><tspan x="35.63" y="0">o</tspan><tspan class="cls-4" x="48.16" y="0">r</tspan><tspan x="55.69" y="0">ge</tspan></text>
      <path class="cls-2" d="M32.59,18.69h-2.83l12.58-15.64h2.44v15.64M42.19,18.69l.1-11.27-9.43,11.27"/>
    </g>
  </g>
</svg>